{"title":"Silent Witness S19 E07-E08","uid":13321386,"size":1320492034,"categoryP":"video","categoryS":"tv_shows","magnet":"?xt=urn:btih:892c6bdeac5937275ae096a309d18f05cadae524&amp;dn=Silent+Witness+S19+E07-E08&amp;tr=udp%3A%2F%2Ftracker.leechers-paradise.org%3A6969&amp;tr=udp%3A%2F%2Fzer0day.ch%3A1337&amp;tr=udp%3A%2F%2Fopen.demonii.com%3A1337&amp;tr=udp%3A%2F%2Ftracker.coppersurfer.tk%3A6969&amp;tr=udp%3A%2F%2Fexodus.desync.com%3A6969","seeders":1,"leechers":1,"uploader":"RedBaron58","files":2,"time":1453857686,"description":"Silent Witness S19 E07- E08 x284 mp4\r\n  \nhttp://www.imdb.com/title/tt0115355/\r\n\r\n\r\n\r\nThank you for your kind comments and feedback on my other torrents, your feedback is welcome.\r\n\r\n\r\nAbout these episodes:\r\nThe accidental fatal shooting of a Polish teenager in an armed police operation sparks a series \r\nof murders, which links Turkish gangsters, a grieving family and a fractured firearms unit. \r\nAs the inquest delivers a lawful killings verdict, IPCC investigator Vicky Sharpe calls on the \r\nLyell team to investigate the connection between the events and review the police evidence, \r\nbut Sharpe's relationship with the family of the teenager and her suspicion of the firearms \r\ndivision lead Nikki and Thomas to distrust her motives\r\n\r\n\r\nI hope you enjoy.\r\n\r\n\r\nTechnical: (Both episodes are encoded to the same settings)\r\n\r\nGeneral\r\nComplete name                            : G:Silent Witness S19 E07-E08Silent Witness S19E07 - In Plain Sight pt1 x264 RB58.mp4\r\nFormat                                   : MPEG-4\r\nFormat profile                           : Base Media\r\nCodec ID                                 : isom\r\nFile size                                : 628 MiB\r\nDuration                                 : 57mn 45s\r\nOverall bit rate                         : 1 521 Kbps\r\nWriting application                      : Lavf54.63.104\r\n\r\nVideo\r\nID                                       : 1\r\nFormat                                   : AVC\r\nFormat/Info                              : Advanced Video Codec\r\nFormat profile                           :   \r\nFormat settings, CABAC                   : Yes\r\nFormat settings, ReFrames                : 4 frames\r\nCodec ID                                 : avc1\r\nCodec ID/Info                            : Advanced Video Coding\r\nDuration                                 : 57mn 45s\r\nBit rate                                 : 1 400 Kbps\r\nWidth                                    : 832 pixels\r\nHeight                                   : 468 pixels\r\nDisplay aspect ratio                     : 16:9\r\nFrame rate mode                          : Constant\r\nFrame rate                               : 25.000 fps\r\nColor space                              : YUV\r\nChroma subsampling                       : 4:2:0\r\nBit depth                                : 8 bits\r\nScan type                                : Progressive\r\nBits/(Pixel*Frame)                       : 0.144\r\nStream size                              : 578 MiB (92%)\r\nWriting library                          : x264 core 123 r2189 35cf912\r\nEncoding settings                        : cabac=1 / ref=3 / deblock=1:0:0\r\n\r\nAudio\r\nID                                       : 2\r\nFormat                                   : AAC\r\nFormat/Info                              : Advanced Audio Codec\r\nFormat profile                           : LC\r\nCodec ID                                 : 40\r\nDuration                                 : 57mn 45s\r\nBit rate mode                            : Constant\r\nBit rate                                 : 112 Kbps\r\nChannel(s)                               : 2 channels\r\nChannel positions                        : Front: L R\r\nSampling rate                            : 48.0 KHz\r\nCompression mode                         : Lossy\r\nStream size                              : 46.3 MiB (7%)","torrent":{"xt":"urn:btih:892c6bdeac5937275ae096a309d18f05cadae524","amp;dn":"Silent+Witness+S19+E07-E08","amp;tr":["udp%3A%2F%2Ftracker.leechers-paradise.org%3A6969","udp%3A%2F%2Fzer0day.ch%3A1337","udp%3A%2F%2Fopen.demonii.com%3A1337","udp%3A%2F%2Ftracker.coppersurfer.tk%3A6969","udp%3A%2F%2Fexodus.desync.com%3A6969"],"infoHash":"892c6bdeac5937275ae096a309d18f05cadae524","infoHashBuffer":{"type":"Buffer","data":[137,44,107,222,172,89,55,39,90,224,150,163,9,209,143,5,202,218,229,36]},"announce":[],"urlList":[]}}